<svg width="60" height="60" viewBox="0 0 60 60" fill="none" xmlns="http://www.w3.org/2000/svg">
<path d="M53.9475 17.1375C54.2975 15.975 53.9475 15.1225 52.2925 15.1225H46.81C45.415 15.1225 44.7775 15.86 44.4275 16.67C44.4275 16.67 41.64 23.4675 37.69 27.875C36.415 29.1575 35.8325 29.5625 35.1375 29.5625C34.79 29.5625 34.285 29.1575 34.285 27.995V17.1375C34.285 15.7425 33.8825 15.1225 32.72 15.1225H24.105C23.235 15.1225 22.71 15.7675 22.71 16.3825C22.71 17.7025 24.685 18.0075 24.8875 21.7275V29.7975C24.8875 31.565 24.57 31.8875 23.87 31.8875C22.0125 31.8875 17.4925 25.065 14.81 17.255C14.2875 15.7375 13.76 15.125 12.36 15.125H6.88C5.3125 15.125 5 15.8625 5 16.6725C5 18.1275 6.8575 25.3275 13.6525 34.85C18.1825 41.3525 24.56 44.8775 30.37 44.8775C33.8525 44.8775 34.2825 44.095 34.2825 42.745V37.83C34.2825 36.265 34.615 35.95 35.7175 35.95C36.5275 35.95 37.9225 36.36 41.175 39.4925C44.89 43.2075 45.505 44.875 47.5925 44.875H53.0725C54.6375 44.875 55.42 44.0925 54.97 42.5475C54.4775 41.01 52.7025 38.7725 50.3475 36.125C49.0675 34.615 47.155 32.99 46.5725 32.1775C45.76 31.13 45.995 30.6675 46.5725 29.7375C46.575 29.74 53.2525 20.335 53.9475 17.1375V17.1375Z" fill="white"/>
</svg>
