<svg width="51" height="60" viewBox="0 0 51 60" fill="none" xmlns="http://www.w3.org/2000/svg">
<g clip-path="url(#clip0_407_735)">
<path d="M32.2391 41.6518V48.7165C32.2391 50.2121 31.8076 50.9598 30.9445 50.9598C30.4355 50.9598 29.9376 50.7143 29.4507 50.2232V40.1451C29.9376 39.654 30.4355 39.4085 30.9445 39.4085C31.8076 39.4085 32.2391 40.1562 32.2391 41.6518ZM43.4593 41.6853V43.2254H40.4717V41.6853C40.4717 40.1674 40.9696 39.4085 41.9655 39.4085C42.9614 39.4085 43.4593 40.1674 43.4593 41.6853ZM11.3922 34.3862H14.9441V31.2388H4.58707V34.3862H8.07263V53.4375H11.3922V34.3862ZM20.9526 53.4375H23.907V36.8973H20.9526V49.5536C20.2887 50.4911 19.6579 50.9598 19.0604 50.9598C18.6621 50.9598 18.4297 50.7254 18.3633 50.2567C18.3412 50.1897 18.3301 49.7991 18.3301 49.0848V36.8973H15.3757V49.9888C15.3757 51.0826 15.4642 51.8973 15.6413 52.433C15.9068 53.2589 16.5486 53.6719 17.5666 53.6719C18.6289 53.6719 19.7575 52.9911 20.9526 51.6295V53.4375ZM35.1936 48.4821V41.8862C35.1936 40.2567 35.094 39.1518 34.8948 38.5714C34.5186 37.3214 33.7329 36.6964 32.5379 36.6964C31.4314 36.6964 30.4023 37.2991 29.4507 38.5045V31.2388H26.4963V53.4375H29.4507V51.8304C30.4466 53.058 31.4756 53.6719 32.5379 53.6719C33.7329 53.6719 34.5186 53.058 34.8948 51.8304C35.094 51.2277 35.1936 50.1116 35.1936 48.4821ZM46.4137 48.1473V47.7121H43.3929C43.3929 48.8504 43.3708 49.5312 43.3265 49.7545C43.1716 50.558 42.729 50.9598 41.9987 50.9598C40.9807 50.9598 40.4717 50.1897 40.4717 48.6496V45.7366H46.4137V42.2879C46.4137 40.5246 46.115 39.2299 45.5174 38.404C44.6543 37.2656 43.4814 36.6964 41.9987 36.6964C40.4938 36.6964 39.3098 37.2656 38.4467 38.404C37.8271 39.2299 37.5173 40.5246 37.5173 42.2879V48.0804C37.5173 49.8437 37.8381 51.1384 38.4799 51.9643C39.343 53.1027 40.5381 53.6719 42.0651 53.6719C43.6585 53.6719 44.8535 53.0804 45.6502 51.8973C46.0486 51.2946 46.2809 50.692 46.3473 50.0893C46.3916 49.8884 46.4137 49.2411 46.4137 48.1473ZM26.2307 17.5781V10.5469C26.2307 9.0067 25.7549 8.23661 24.8033 8.23661C23.8517 8.23661 23.3759 9.0067 23.3759 10.5469V17.5781C23.3759 19.1406 23.8517 19.9219 24.8033 19.9219C25.7549 19.9219 26.2307 19.1406 26.2307 17.5781ZM50.0984 42.7232C50.0984 47.9464 49.8107 51.8527 49.2354 54.442C48.9255 55.7589 48.2837 56.8638 47.31 57.7567C46.3363 58.6496 45.2076 59.1629 43.924 59.2969C39.852 59.7656 33.7108 60 25.5004 60C17.29 60 11.1488 59.7656 7.07675 59.2969C5.79318 59.1629 4.659 58.6496 3.67419 57.7567C2.68938 56.8638 2.05313 55.7589 1.76543 54.442C1.19004 51.942 0.902344 48.0357 0.902344 42.7232C0.902344 37.5 1.19004 33.5937 1.76543 31.0045C2.07526 29.6875 2.71704 28.5826 3.69079 27.6897C4.66453 26.7969 5.80425 26.2723 7.10995 26.1161C11.1598 25.6696 17.29 25.4464 25.5004 25.4464C33.7108 25.4464 39.852 25.6696 43.924 26.1161C45.2076 26.2723 46.3418 26.7969 47.3266 27.6897C48.3114 28.5826 48.9477 29.6875 49.2354 31.0045C49.8107 33.5045 50.0984 37.4107 50.0984 42.7232ZM16.9691 0H20.3551L16.3384 13.3594V22.433H13.0188V13.3594C12.709 11.7076 12.034 9.34152 10.9939 6.26116C10.175 3.96205 9.45578 1.875 8.83613 0H12.3549L14.7118 8.8058L16.9691 0ZM29.2515 11.1496V17.0089C29.2515 18.817 28.9417 20.1339 28.322 20.9598C27.4811 22.0982 26.3082 22.6674 24.8033 22.6674C23.3205 22.6674 22.1587 22.0982 21.3177 20.9598C20.6981 20.1116 20.3882 18.7946 20.3882 17.0089V11.1496C20.3882 9.36384 20.6981 8.05804 21.3177 7.23214C22.1587 6.09375 23.3205 5.52455 24.8033 5.52455C26.3082 5.52455 27.4811 6.09375 28.322 7.23214C28.9417 8.05804 29.2515 9.36384 29.2515 11.1496ZM40.3721 5.72545V22.433H37.3513V20.5915C36.1784 21.9754 35.0386 22.6674 33.9321 22.6674C32.9141 22.6674 32.2613 22.2545 31.9736 21.4286C31.7965 20.8929 31.708 20.0558 31.708 18.9174V5.72545H34.7288V18.0134C34.7288 18.75 34.7399 19.1406 34.762 19.1853C34.8284 19.6763 35.0608 19.9219 35.4591 19.9219C36.0566 19.9219 36.6874 19.442 37.3513 18.4821V5.72545H40.3721Z" fill="white"/>
</g>
<defs>
<clipPath id="clip0_407_735">
<rect width="51" height="60" fill="white"/>
</clipPath>
</defs>
</svg>
