<svg width="68" height="68" viewBox="0 0 68 68" fill="none" xmlns="http://www.w3.org/2000/svg">
<path d="M47.7947 21.5173C47.6974 21.5815 47.6182 21.6729 47.5683 21.7336C47.5086 21.8065 47.4442 21.8947 47.3776 21.9921C47.2437 22.1877 47.0846 22.4438 46.9113 22.7395C46.5641 23.3323 46.1475 24.1056 45.7437 24.9187C44.0373 28.3542 42.242 31.088 40.7955 32.6689C40.0591 33.4737 39.4683 33.9175 39.0687 34.0542C38.8812 34.1183 38.7976 34.094 38.7674 34.0795C38.7382 34.0654 38.6601 34.0128 38.5873 33.8037L38.5872 33.8036C38.5886 33.8076 38.5856 33.7994 38.5799 33.7721C38.5746 33.7466 38.5685 33.7118 38.5619 33.6663C38.5488 33.5751 38.5356 33.4536 38.5229 33.3003C38.4975 32.9942 38.4754 32.58 38.4573 32.064C38.4211 31.0332 38.4017 29.6149 38.4017 27.8807C38.4017 25.6734 38.3885 24.2745 38.3467 23.388C38.3259 22.9461 38.2973 22.6148 38.2561 22.3675C38.2173 22.1342 38.1577 21.9084 38.0299 21.7333L38.0298 21.7332C37.9241 21.5884 37.7859 21.4512 37.5481 21.3555C37.3451 21.2738 37.0889 21.2307 36.7618 21.2008C36.1013 21.1402 34.9502 21.1192 32.8717 21.092L28.3864 21.0333L28.1755 21.0305L28.0264 21.1797L27.527 21.679L27.5269 21.679C27.3664 21.8396 27.2107 22.0194 27.1107 22.2322C27.0024 22.4625 26.9714 22.7048 27.0175 22.9632C27.0605 23.2038 27.1678 23.4431 27.3061 23.6872C27.446 23.9342 27.6359 24.2173 27.8703 24.548L27.8703 24.548C28.3953 25.2885 28.64 25.7168 28.7779 26.5337C28.9251 27.4055 28.9463 28.7015 28.9463 31.1779C28.9463 32.4037 28.9295 33.5768 28.9026 34.4784C28.8891 34.9296 28.8732 35.3099 28.8558 35.5935C28.847 35.7356 28.8382 35.8498 28.8294 35.9349C28.8226 36.0013 28.8172 36.0352 28.8154 36.0469C28.8145 36.0523 28.8144 36.053 28.8153 36.0499L28.8152 36.05C28.7925 36.1314 28.7747 36.1781 28.7622 36.2047C28.7604 36.205 28.7586 36.2054 28.7565 36.2058C28.7145 36.2135 28.6459 36.2193 28.5303 36.2193C28.4028 36.2193 28.135 36.1244 27.7167 35.7749C27.3189 35.4424 26.8559 34.9398 26.3487 34.2794C25.3364 32.9614 24.1909 31.0718 23.0801 28.8181L23.08 28.8181C22.3992 27.4371 21.5467 25.5036 21.1884 24.532C20.7949 23.4648 20.4961 22.7427 20.2006 22.2537C19.8883 21.7369 19.5579 21.4442 19.105 21.2718L19.1048 21.2718L56.0635 48.3058L56.2563 48.7671C56.6038 48.6219 56.9088 48.4199 57.1217 48.1302C57.3403 47.8328 57.4308 47.4852 57.4177 47.111C57.393 46.4058 56.9976 45.5633 56.363 44.5761C55.3079 42.9345 54.2084 41.6393 51.5304 38.8585L51.1984 39.1782L51.5304 38.8585C50.9328 38.2379 50.3695 37.6188 49.9443 37.1227C49.7314 36.8743 49.5563 36.6604 49.4299 36.4947C49.3665 36.4116 49.3186 36.3448 49.2853 36.2943C49.2596 36.2556 49.2501 36.2374 49.2486 36.2352M47.7947 21.5173L48.0586 21.9175L47.7947 21.5173C47.7947 21.5173 47.7947 21.5173 47.7947 21.5173ZM47.7947 21.5173C47.8905 21.4542 47.9993 21.4155 48.0831 21.3902C48.1754 21.3623 48.2801 21.3382 48.3906 21.3171C48.6121 21.2746 48.8867 21.2381 49.1917 21.207C49.8035 21.1444 50.57 21.1003 51.3474 21.0778C52.1252 21.0554 52.9221 21.0544 53.5952 21.0795C54.2455 21.1037 54.8426 21.1537 55.1792 21.2546C55.5323 21.3604 55.8676 21.5201 56.1083 21.7966C56.3616 22.0876 56.4576 22.446 56.446 22.8377C56.4347 23.2148 56.3241 23.6436 56.1459 24.1263C55.9657 24.614 55.7043 25.1885 55.3668 25.8649L54.9196 25.6417L55.3668 25.8649C54.4303 27.7417 53.1884 29.7746 50.9483 33.1094L50.5631 32.8506L50.9483 33.1094C49.9607 34.5795 49.4926 35.2837 49.2892 35.7014C49.1926 35.8998 49.1846 35.9786 49.1845 36.0099C49.1844 36.0441 49.1912 36.0834 49.2486 36.2352M49.2486 36.2352C49.2485 36.235 49.2485 36.2349 49.2485 36.2349C49.2484 36.235 49.2498 36.2382 49.252 36.2441C49.2509 36.2411 49.2498 36.2381 49.2486 36.2352ZM28.3799 21.5332L27.8805 22.0325C27.2908 22.6225 27.3489 22.9477 28.2782 24.2588C29.3681 25.7962 29.4463 26.2595 29.4463 31.1779C29.4463 33.6375 29.379 35.8906 29.2968 36.1846L28.3799 21.5332ZM28.3799 21.5332L32.8652 21.592M28.3799 21.5332L32.8652 21.592M32.8652 21.592C37.0435 21.6466 37.3693 21.6765 37.626 22.0281L32.8652 21.592ZM1.09164 14.3375L1.09164 14.3375C1.80479 9.65578 3.23819 6.51243 5.79376 4.40669C8.36417 2.28874 12.1505 1.1519 17.7286 0.679357C19.1053 0.562767 26.4512 0.501488 33.854 0.500027C41.2561 0.498566 48.6255 0.556904 50.0476 0.673065C56.3514 1.18803 60.3829 2.43037 62.9807 4.96403C65.5752 7.49448 66.8371 11.4088 67.3439 17.5314C67.4856 19.2433 67.5316 25.2781 67.4787 35.7446C67.4099 49.3196 67.3533 51.6516 67.0735 53.4189L67.5674 53.4971L67.0735 53.419C66.3715 57.8554 65.124 60.8958 63.0142 63.0062C60.9045 65.1165 57.8651 66.3643 53.4303 67.0663C51.6657 67.3456 49.3279 67.403 35.8581 67.4735C19.2079 67.5607 16.5835 67.4648 12.717 66.6778C9.18012 65.9579 6.62387 64.7022 4.79673 62.7451C2.96728 60.7855 1.81863 58.0693 1.20246 54.3314C0.612047 50.7496 0.498079 47.5461 0.500024 33.9382C0.50197 21.0247 0.611912 17.4854 1.09164 14.3375ZM11.8988 21.3848C11.8988 21.3848 11.8988 21.3848 11.8988 21.3848L11.8988 21.3848Z" stroke="white"/>
</svg>
