<svg width="68" height="68" viewBox="0 0 68 68" fill="none" xmlns="http://www.w3.org/2000/svg">
<path fill-rule="evenodd" clip-rule="evenodd" d="M17.6864 0.181142C6.46521 1.13173 2.04235 4.77599 0.597346 14.2622C0.110625 17.456 0.0019683 21.0388 2.45283e-05 33.9381C-0.00191925 47.5329 0.110625 50.7819 0.709113 54.4127C1.96013 62.0016 5.41441 65.7017 12.6173 67.1677C16.5462 67.9675 19.2313 68.0606 35.8607 67.9735C49.3027 67.9031 51.6953 67.8471 53.5084 67.5601C62.4741 66.1409 66.1482 62.4658 67.5674 53.4971C67.8548 51.6811 67.91 49.2941 67.9787 35.7471C68.0315 25.2944 67.9862 19.23 67.8422 17.4902C66.8237 5.18586 62.7456 1.20872 50.0884 0.174725C47.1914 -0.0619002 20.4942 -0.0566505 17.6864 0.181142ZM18.9271 21.7391C19.5822 21.9884 19.9295 22.563 20.7193 24.705C21.0857 25.6986 21.9462 27.649 22.6316 29.0392C24.8724 33.5852 27.2795 36.7193 28.5303 36.7193C29.0375 36.7193 29.1739 36.6242 29.2968 36.1846C29.379 35.8906 29.4463 33.6375 29.4463 31.1779C29.4463 26.2595 29.3681 25.7962 28.2782 24.2588C27.3489 22.9477 27.2908 22.6225 27.8805 22.0325L28.3799 21.5332L32.8652 21.592C37.0435 21.6466 37.3693 21.6765 37.626 22.0281C37.8484 22.3328 37.9017 23.4618 37.9017 27.8807C37.9017 31.3547 37.9796 33.5798 38.1151 33.9682C38.9128 36.2575 42.7566 32.0566 46.1915 25.1411C46.9908 23.5318 47.8361 22.0889 48.0699 21.9347C48.6239 21.5694 53.9724 21.4148 55.0356 21.7335C56.2818 22.107 56.2563 22.9621 54.9194 25.6416C53.9977 27.4889 52.7704 29.5003 50.5333 32.8306C48.5837 35.7327 48.5495 35.8031 48.7847 36.4218C48.8904 36.7 49.9638 37.9526 51.1703 39.2053C53.8437 41.9814 54.9149 43.2478 55.9424 44.8464C57.2055 46.8115 57.2407 47.8138 56.0635 48.3058C55.1602 48.6833 50.0065 48.6886 49.1077 48.313C48.7567 48.1662 46.9882 46.5666 45.178 44.7585C41.1602 40.7454 39.5869 39.8042 38.3761 40.6894C38.0333 40.94 37.9926 41.2675 37.9308 44.2738C37.8519 48.123 37.8733 48.0783 35.9511 48.417C34.3935 48.6915 31.7681 48.3956 29.7899 47.7225C24.6059 45.9588 20.6023 42.169 16.3044 34.9571C13.6675 30.5326 11.4663 25.1485 11.4663 23.1235C11.4663 22.1751 11.5021 22.1023 12.0981 21.8434C12.8416 21.5202 18.1385 21.4393 18.9271 21.7391Z" fill="#B87333"/>
</svg>
