<svg width="68" height="68" viewBox="0 0 68 68" fill="none" xmlns="http://www.w3.org/2000/svg">
<mask id="path-1-inside-1_105_534" fill="white">
<path fill-rule="evenodd" clip-rule="evenodd" d="M10.4944 0.195528C7.90252 0.664546 5.85043 1.7285 3.88799 3.62104C2.41564 5.04098 1.3117 6.75274 0.68376 8.58949C-0.0177554 10.6412 4.14983e-05 9.97954 4.14983e-05 33.9959C4.14983e-05 58.0122 -0.0177554 57.3506 0.68376 59.4022C1.90989 62.9886 5.02593 66.1058 8.59673 67.3183C10.6568 68.0178 9.99551 68 34 68C58.0135 68 57.3519 68.0178 59.4034 67.3162C62.9893 66.0899 66.1061 62.9735 67.3185 59.4022C68.0178 57.3419 68 58.0033 68 33.9959C68 9.97954 68.0178 10.6412 67.3163 8.58949C66.0852 4.98851 63.0039 1.90689 59.4034 0.67557C57.3485 -0.0272252 58.0346 -0.0091605 33.883 0.00372387C15.6698 0.0135532 11.3028 0.049284 10.4944 0.195528ZM22.159 8.52321C22.7872 10.8412 23.338 12.6643 23.383 12.5745C23.4279 12.4847 23.9376 10.5734 24.5156 8.32716L25.5664 4.24308L27.1934 4.24268C28.0883 4.24241 28.8204 4.29488 28.8204 4.3593C28.8204 4.42359 27.9538 7.33081 26.8946 10.8195L24.9688 17.1629V21.6609V26.159H23.3086H21.6485L21.6475 21.676L21.6466 17.1931L21.1194 15.238C20.8294 14.1627 19.9134 11.2471 19.0839 8.75885L17.5755 4.23484L19.2961 4.27177L21.0167 4.30869L22.159 8.52321ZM34.7305 9.83409C35.4328 10.0139 36.4415 10.7592 36.8428 11.3948C37.5663 12.5411 37.6311 13.011 37.6872 17.5118C37.7412 21.8537 37.6593 22.9273 37.1934 23.9835C36.8374 24.7904 36.0685 25.5707 35.2167 25.989C34.5698 26.3067 34.3074 26.3576 33.336 26.3534C31.6178 26.3463 30.4821 25.7252 29.6685 24.3477C29.0723 23.3381 28.9578 22.3248 28.9578 18.0564C28.9578 13.8536 29.0621 12.8873 29.6409 11.7282C30.506 9.99561 32.4846 9.25935 34.7305 9.83409ZM43.1641 16.5923V23.3635L43.4629 23.5561C43.9069 23.8422 44.4485 23.6727 45.1072 23.0415L45.6875 22.4853V16.1531V9.82108H47.2149H48.7422V17.99V26.159H47.2149H45.6875V25.3517V24.5445L44.9928 25.1523C43.292 26.6402 41.3479 26.8105 40.6067 25.5365C40.2046 24.8453 40.1143 23.1592 40.1118 16.2965L40.1094 9.82108H41.6368H43.1641V16.5923ZM32.812 12.3748C32.6334 12.4682 32.3645 12.7537 32.2144 13.0092C31.9537 13.453 31.9414 13.6736 31.9414 17.9236C31.9414 22.1077 31.9573 22.4051 32.2071 22.9047C32.5314 23.5533 33.0682 23.8452 33.6369 23.6821C34.6672 23.3866 34.841 22.4062 34.773 17.2743C34.7207 13.3182 34.6727 12.9809 34.0958 12.502C33.7962 12.2533 33.1642 12.1907 32.812 12.3748ZM44.625 29.3508C46.5608 29.4259 49.1716 29.5747 50.4271 29.6815C53.5465 29.9467 54.4793 30.2816 55.8122 31.6146C57.1287 32.9312 57.5539 34.1432 57.9991 37.8479C58.2992 40.344 58.3419 51.1926 58.0617 53.7209C57.6202 57.704 57.13 59.2058 55.8238 60.5752C54.6391 61.8176 53.6301 62.2442 51.3128 62.4832C47.2721 62.8999 43.6131 63.0115 34 63.0115C24.3869 63.0115 20.728 62.8999 16.6873 62.4832C14.37 62.2442 13.361 61.8176 12.1763 60.5752C10.8624 59.1975 10.4064 57.7982 9.94292 53.7209C9.69562 51.5445 9.69203 40.6427 9.938 38.5784C10.2071 36.3216 10.4774 34.8039 10.7698 33.9083C11.3288 32.1971 12.8714 30.6698 14.5713 30.1448C15.6043 29.8257 18.8403 29.5176 22.7774 29.3636C26.9048 29.2021 40.5806 29.1941 44.625 29.3508ZM13.2813 36.3868V37.9807H15.0079H16.7344V47.3492V56.7178L18.3614 56.6804L19.9883 56.6431L20.0225 47.3119L20.0566 37.9807H21.7822H23.5079V36.3868V34.7928H18.3946H13.2813V36.3868ZM34.9925 34.9544C34.9568 35.0481 34.943 39.9665 34.9619 45.884L34.9961 56.6431H36.4571H37.918L37.9584 55.9407L37.9986 55.2383L38.6224 55.7932C39.5315 56.6017 40.2416 56.8839 41.1926 56.8151C42.4202 56.7264 43.0265 56.1137 43.3822 54.6026C43.6336 53.5341 43.6336 43.547 43.3822 42.4786C43.0265 40.9675 42.4202 40.3548 41.1926 40.266C40.2293 40.1963 39.4647 40.5019 38.5942 41.3045L37.9889 41.8625L37.9535 38.3609L37.918 34.8592L36.4879 34.8215C35.4178 34.7932 35.0413 34.8267 34.9925 34.9544ZM48.6758 40.5086C47.3241 41.0294 46.4891 42.0204 46.1426 43.5149C45.9739 44.242 45.9452 45.2029 45.9804 48.9271C46.0214 53.2579 46.0363 53.4875 46.3213 54.1963C46.7259 55.2021 47.3655 55.91 48.2961 56.3816C49.0047 56.7406 49.1931 56.776 50.4024 56.776C51.5223 56.776 51.8284 56.7277 52.3545 56.4686C53.0827 56.1098 53.8378 55.383 54.1922 54.7C54.4856 54.1344 54.7164 52.8418 54.7177 51.7573L54.7188 50.9891L53.2247 51.0267L51.7305 51.0643L51.6641 52.1934C51.6276 52.8143 51.5253 53.4487 51.4367 53.6031C51.0254 54.3205 49.7501 54.3257 49.2198 53.612C48.9696 53.2754 48.9372 53.0239 48.8991 51.1214L48.8567 49.0055H51.7878H54.7188L54.7165 46.847C54.7131 43.688 54.4034 42.4977 53.2841 41.3445C52.2628 40.2918 50.2062 39.9188 48.6758 40.5086ZM24.0671 47.8387C24.1014 54.5211 24.1293 55.3674 24.33 55.81C24.9942 57.2758 27.0306 57.1742 28.7871 55.5878L29.4844 54.9582V55.8338V56.7095H30.9454H32.4063V48.5406V40.3716H30.9454H29.4844V46.6099V52.8482L29.0663 53.3245C28.4073 54.0753 27.7013 54.3558 27.2266 54.0559C27.0553 53.9475 27.0181 52.9865 26.961 47.184L26.8946 40.438L25.4617 40.4003L24.0286 40.3626L24.0671 47.8387ZM39.9855 43.033C40.5812 43.3518 40.6407 43.8468 40.6407 48.4877C40.6407 52.2013 40.6085 52.9323 40.4255 53.39C40.0811 54.2509 39.3335 54.442 38.5021 53.8816L38.0508 53.5776L38.016 48.5161L37.9812 43.4547L38.4145 43.1774C38.8834 42.8769 39.5752 42.8134 39.9855 43.033ZM51.02 43.0388C51.435 43.261 51.6642 43.9848 51.7544 45.3577L51.837 46.6146H50.356H48.875V45.4277C48.875 44.1518 48.998 43.6643 49.4383 43.1942C49.7476 42.8639 50.5465 42.7855 51.02 43.0388Z"/>
</mask>
<path fill-rule="evenodd" clip-rule="evenodd" d="M10.4944 0.195528C7.90252 0.664546 5.85043 1.7285 3.88799 3.62104C2.41564 5.04098 1.3117 6.75274 0.68376 8.58949C-0.0177554 10.6412 4.14983e-05 9.97954 4.14983e-05 33.9959C4.14983e-05 58.0122 -0.0177554 57.3506 0.68376 59.4022C1.90989 62.9886 5.02593 66.1058 8.59673 67.3183C10.6568 68.0178 9.99551 68 34 68C58.0135 68 57.3519 68.0178 59.4034 67.3162C62.9893 66.0899 66.1061 62.9735 67.3185 59.4022C68.0178 57.3419 68 58.0033 68 33.9959C68 9.97954 68.0178 10.6412 67.3163 8.58949C66.0852 4.98851 63.0039 1.90689 59.4034 0.67557C57.3485 -0.0272252 58.0346 -0.0091605 33.883 0.00372387C15.6698 0.0135532 11.3028 0.049284 10.4944 0.195528ZM22.159 8.52321C22.7872 10.8412 23.338 12.6643 23.383 12.5745C23.4279 12.4847 23.9376 10.5734 24.5156 8.32716L25.5664 4.24308L27.1934 4.24268C28.0883 4.24241 28.8204 4.29488 28.8204 4.3593C28.8204 4.42359 27.9538 7.33081 26.8946 10.8195L24.9688 17.1629V21.6609V26.159H23.3086H21.6485L21.6475 21.676L21.6466 17.1931L21.1194 15.238C20.8294 14.1627 19.9134 11.2471 19.0839 8.75885L17.5755 4.23484L19.2961 4.27177L21.0167 4.30869L22.159 8.52321ZM34.7305 9.83409C35.4328 10.0139 36.4415 10.7592 36.8428 11.3948C37.5663 12.5411 37.6311 13.011 37.6872 17.5118C37.7412 21.8537 37.6593 22.9273 37.1934 23.9835C36.8374 24.7904 36.0685 25.5707 35.2167 25.989C34.5698 26.3067 34.3074 26.3576 33.336 26.3534C31.6178 26.3463 30.4821 25.7252 29.6685 24.3477C29.0723 23.3381 28.9578 22.3248 28.9578 18.0564C28.9578 13.8536 29.0621 12.8873 29.6409 11.7282C30.506 9.99561 32.4846 9.25935 34.7305 9.83409ZM43.1641 16.5923V23.3635L43.4629 23.5561C43.9069 23.8422 44.4485 23.6727 45.1072 23.0415L45.6875 22.4853V16.1531V9.82108H47.2149H48.7422V17.99V26.159H47.2149H45.6875V25.3517V24.5445L44.9928 25.1523C43.292 26.6402 41.3479 26.8105 40.6067 25.5365C40.2046 24.8453 40.1143 23.1592 40.1118 16.2965L40.1094 9.82108H41.6368H43.1641V16.5923ZM32.812 12.3748C32.6334 12.4682 32.3645 12.7537 32.2144 13.0092C31.9537 13.453 31.9414 13.6736 31.9414 17.9236C31.9414 22.1077 31.9573 22.4051 32.2071 22.9047C32.5314 23.5533 33.0682 23.8452 33.6369 23.6821C34.6672 23.3866 34.841 22.4062 34.773 17.2743C34.7207 13.3182 34.6727 12.9809 34.0958 12.502C33.7962 12.2533 33.1642 12.1907 32.812 12.3748ZM44.625 29.3508C46.5608 29.4259 49.1716 29.5747 50.4271 29.6815C53.5465 29.9467 54.4793 30.2816 55.8122 31.6146C57.1287 32.9312 57.5539 34.1432 57.9991 37.8479C58.2992 40.344 58.3419 51.1926 58.0617 53.7209C57.6202 57.704 57.13 59.2058 55.8238 60.5752C54.6391 61.8176 53.6301 62.2442 51.3128 62.4832C47.2721 62.8999 43.6131 63.0115 34 63.0115C24.3869 63.0115 20.728 62.8999 16.6873 62.4832C14.37 62.2442 13.361 61.8176 12.1763 60.5752C10.8624 59.1975 10.4064 57.7982 9.94292 53.7209C9.69562 51.5445 9.69203 40.6427 9.938 38.5784C10.2071 36.3216 10.4774 34.8039 10.7698 33.9083C11.3288 32.1971 12.8714 30.6698 14.5713 30.1448C15.6043 29.8257 18.8403 29.5176 22.7774 29.3636C26.9048 29.2021 40.5806 29.1941 44.625 29.3508ZM13.2813 36.3868V37.9807H15.0079H16.7344V47.3492V56.7178L18.3614 56.6804L19.9883 56.6431L20.0225 47.3119L20.0566 37.9807H21.7822H23.5079V36.3868V34.7928H18.3946H13.2813V36.3868ZM34.9925 34.9544C34.9568 35.0481 34.943 39.9665 34.9619 45.884L34.9961 56.6431H36.4571H37.918L37.9584 55.9407L37.9986 55.2383L38.6224 55.7932C39.5315 56.6017 40.2416 56.8839 41.1926 56.8151C42.4202 56.7264 43.0265 56.1137 43.3822 54.6026C43.6336 53.5341 43.6336 43.547 43.3822 42.4786C43.0265 40.9675 42.4202 40.3548 41.1926 40.266C40.2293 40.1963 39.4647 40.5019 38.5942 41.3045L37.9889 41.8625L37.9535 38.3609L37.918 34.8592L36.4879 34.8215C35.4178 34.7932 35.0413 34.8267 34.9925 34.9544ZM48.6758 40.5086C47.3241 41.0294 46.4891 42.0204 46.1426 43.5149C45.9739 44.242 45.9452 45.2029 45.9804 48.9271C46.0214 53.2579 46.0363 53.4875 46.3213 54.1963C46.7259 55.2021 47.3655 55.91 48.2961 56.3816C49.0047 56.7406 49.1931 56.776 50.4024 56.776C51.5223 56.776 51.8284 56.7277 52.3545 56.4686C53.0827 56.1098 53.8378 55.383 54.1922 54.7C54.4856 54.1344 54.7164 52.8418 54.7177 51.7573L54.7188 50.9891L53.2247 51.0267L51.7305 51.0643L51.6641 52.1934C51.6276 52.8143 51.5253 53.4487 51.4367 53.6031C51.0254 54.3205 49.7501 54.3257 49.2198 53.612C48.9696 53.2754 48.9372 53.0239 48.8991 51.1214L48.8567 49.0055H51.7878H54.7188L54.7165 46.847C54.7131 43.688 54.4034 42.4977 53.2841 41.3445C52.2628 40.2918 50.2062 39.9188 48.6758 40.5086ZM24.0671 47.8387C24.1014 54.5211 24.1293 55.3674 24.33 55.81C24.9942 57.2758 27.0306 57.1742 28.7871 55.5878L29.4844 54.9582V55.8338V56.7095H30.9454H32.4063V48.5406V40.3716H30.9454H29.4844V46.6099V52.8482L29.0663 53.3245C28.4073 54.0753 27.7013 54.3558 27.2266 54.0559C27.0553 53.9475 27.0181 52.9865 26.961 47.184L26.8946 40.438L25.4617 40.4003L24.0286 40.3626L24.0671 47.8387ZM39.9855 43.033C40.5812 43.3518 40.6407 43.8468 40.6407 48.4877C40.6407 52.2013 40.6085 52.9323 40.4255 53.39C40.0811 54.2509 39.3335 54.442 38.5021 53.8816L38.0508 53.5776L38.016 48.5161L37.9812 43.4547L38.4145 43.1774C38.8834 42.8769 39.5752 42.8134 39.9855 43.033ZM51.02 43.0388C51.435 43.261 51.6642 43.9848 51.7544 45.3577L51.837 46.6146H50.356H48.875V45.4277C48.875 44.1518 48.998 43.6643 49.4383 43.1942C49.7476 42.8639 50.5465 42.7855 51.02 43.0388Z" stroke="white" stroke-width="2" mask="url(#path-1-inside-1_105_534)"/>
</svg>
